<?xml version="1.0" encoding="utf-8"?>
<!-- Generator: Adobe Illustrator 16.0.0, SVG Export Plug-In . SVG Version: 6.00 Build 0)  -->
<!DOCTYPE svg PUBLIC "-//W3C//DTD SVG 1.1//EN" "http://www.w3.org/Graphics/SVG/1.1/DTD/svg11.dtd">
<svg version="1.1" id="Capa_1" xmlns="http://www.w3.org/2000/svg" xmlns:xlink="http://www.w3.org/1999/xlink" x="0px" y="0px"
	 width="19.998px" height="19.606px" viewBox="0 0 19.998 19.606" enable-background="new 0 0 19.998 19.606" xml:space="preserve">
<g>
	<g>
		<g>
			<g>
				<g>
					<path fill="#D58400" d="M10.004,0.426c-5.23,0-9.481,4.255-9.481,9.482c0,5.217,4.25,9.468,9.481,9.468
						c5.22,0,9.471-4.251,9.471-9.468C19.475,4.682,15.224,0.426,10.004,0.426z M10.004,18.225c-4.594,0-8.319-3.722-8.319-8.316
						c0-4.598,3.725-8.315,8.319-8.315c4.582,0,8.314,3.718,8.314,8.315C18.318,14.503,14.586,18.225,10.004,18.225z"/>
				</g>
			</g>
		</g>
		<g>
			<g>
				<g>
					<path fill="#D58400" d="M9.182,3.73c-3.07,0.409-5.398,3.071-5.398,6.179c0,2.204,1.196,4.266,3.103,5.389l0.473-0.825
						c-1.469-0.862-2.43-2.369-2.598-4.046h4.024c0,2.852,0,5.712,0,5.712h0.931V3.66L9.182,3.73z M8.785,9.478H4.744
						c0.197-2.264,1.835-4.156,4.042-4.693V9.478z"/>
				</g>
			</g>
		</g>
		<g>
			<g>
				<g>
					<polygon fill="#D58400" points="15.502,5.948 11.956,10.094 11.956,3.73 11.01,3.73 11.01,16.139 11.956,16.139 11.956,11.542 
						12.867,10.472 15.451,13.768 16.204,13.191 13.502,9.742 16.208,6.565 					"/>
				</g>
			</g>
		</g>
	</g>
</g>
</svg>
