<?xml version="1.0" encoding="utf-8"?>
<!-- Generator: Adobe Illustrator 16.0.0, SVG Export Plug-In . SVG Version: 6.00 Build 0)  -->
<!DOCTYPE svg PUBLIC "-//W3C//DTD SVG 1.1//EN" "http://www.w3.org/Graphics/SVG/1.1/DTD/svg11.dtd">
<svg version="1.1" id="Capa_1" xmlns="http://www.w3.org/2000/svg" xmlns:xlink="http://www.w3.org/1999/xlink" x="0px" y="0px"
	 width="19.998px" height="19.606px" viewBox="0 0 19.998 19.606" enable-background="new 0 0 19.998 19.606" xml:space="preserve">
<g>
	<g>
		<g>
			<g>
				<g>
					<path fill="#D58400" d="M9.809,0.426c-5.123,0-9.288,4.168-9.288,9.287c0,5.111,4.165,9.275,9.288,9.275
						c5.113,0,9.277-4.164,9.277-9.275C19.086,4.595,14.922,0.426,9.809,0.426z M9.809,17.86c-4.501,0-8.148-3.645-8.148-8.146
						c0-4.502,3.647-8.144,8.148-8.144c4.487,0,8.143,3.641,8.143,8.144C17.952,14.215,14.296,17.86,9.809,17.86z"/>
				</g>
			</g>
		</g>
		<g>
			<g>
				<g>
					<path fill="#D58400" d="M9.004,3.662c-3.009,0.401-5.29,3.008-5.29,6.052c0,2.159,1.173,4.18,3.041,5.278l0.462-0.807
						c-1.438-0.844-2.379-2.32-2.544-3.963h3.941c0,2.793,0,5.595,0,5.595h0.913V3.593L9.004,3.662z M8.615,9.292H4.656
						c0.193-2.218,1.798-4.071,3.958-4.598V9.292z"/>
				</g>
			</g>
		</g>
		<g>
			<g>
				<g>
					<polygon fill="#D58400" points="15.194,5.835 11.722,9.896 11.722,3.662 10.794,3.662 10.794,15.816 11.722,15.816 
						11.722,11.315 12.614,10.266 15.146,13.494 15.882,12.929 13.235,9.552 15.887,6.439 					"/>
				</g>
			</g>
		</g>
	</g>
	<g>
		<g>
			<g>
				<g>
					<path fill="#D58400" d="M17.036,18.941v-2.972h1.097c0.407,0,0.729,0.146,0.974,0.428c0.245,0.292,0.366,0.644,0.366,1.064
						c0,0.418-0.125,0.776-0.377,1.054c-0.252,0.284-0.615,0.426-1.082,0.426H17.036z M17.59,18.506h0.445
						c0.241,0,0.441-0.093,0.607-0.268c0.17-0.18,0.252-0.452,0.252-0.808c0-0.287-0.073-0.536-0.219-0.731
						c-0.146-0.208-0.34-0.31-0.583-0.31H17.59V18.506z"/>
				</g>
			</g>
		</g>
	</g>
</g>
</svg>
