<?xml version="1.0" encoding="utf-8"?>
<!-- Generator: Adobe Illustrator 16.0.0, SVG Export Plug-In . SVG Version: 6.00 Build 0)  -->
<!DOCTYPE svg PUBLIC "-//W3C//DTD SVG 1.1//EN" "http://www.w3.org/Graphics/SVG/1.1/DTD/svg11.dtd">
<svg version="1.1" id="Capa_1" xmlns="http://www.w3.org/2000/svg" xmlns:xlink="http://www.w3.org/1999/xlink" x="0px" y="0px"
	 width="19.998px" height="19.606px" viewBox="0 0 19.998 19.606" enable-background="new 0 0 19.998 19.606" xml:space="preserve">
<rect x="4.906" y="3.14" fill="#D58400" width="10.438" height="9.25"/>
<g>
	<g>
		<path fill="#FFFFFF" d="M9.999,0.327c-5.233,0-9.476,4.243-9.476,9.476c0,5.234,4.243,9.476,9.476,9.476s9.476-4.242,9.476-9.476
			C19.475,4.57,15.232,0.327,9.999,0.327z M5.86,5.738C6.5,6.649,7.039,6.747,7.039,6.747c1.11,0.426,1.785,0.886,2.183,1.328
			c0.318-0.784,1.233-1.719,3.418-2.64c0,0,0.734-0.152,1.587-1.467c0,0,2.836,6.77-4.123,7.033c0,0,0.65-2.57,3.355-4.524
			c0,0-2.804,1.216-3.831,3.381c-0.025,0.065-0.052,0.122-0.078,0.17c0,0,0,0,0,0.001c-0.058,0.108-0.106,0.169-0.106,0.169
			C8.983,8.49,6.452,7.487,6.452,7.487c2.001,1.335,2.508,3.129,2.508,3.129C3.87,10.521,5.86,5.738,5.86,5.738z"/>
	</g>
	<g>
		<path fill="#D58400" d="M3.423,14.347l-0.605-2.5h0.646l0.279,1.43c0.007,0.036,0.013,0.078,0.019,0.124
			c0.005,0.046,0.01,0.1,0.014,0.16c0.02-0.063,0.039-0.12,0.057-0.17c0.018-0.051,0.033-0.091,0.044-0.121l0.603-1.422h0.677
			l-1.205,2.5H3.423z"/>
		<path fill="#D58400" d="M5.79,13.79h0.704l-0.079,0.557H5.104l0.358-2.5h1.311l-0.082,0.577H5.987L5.93,12.833h0.652l-0.076,0.543
			H5.85L5.79,13.79z"/>
		<path fill="#D58400" d="M8.239,12.985l1.142,0.002c-0.009,0.445-0.121,0.793-0.334,1.046s-0.502,0.379-0.868,0.379
			c-0.36,0-0.645-0.108-0.857-0.323c-0.211-0.215-0.317-0.503-0.317-0.866c0-0.199,0.033-0.388,0.098-0.567
			c0.065-0.179,0.159-0.336,0.281-0.472c0.116-0.128,0.253-0.225,0.412-0.293c0.159-0.068,0.331-0.102,0.517-0.102
			c0.217,0,0.407,0.048,0.57,0.144s0.303,0.243,0.423,0.44L8.82,12.738c-0.057-0.113-0.127-0.197-0.211-0.252
			c-0.084-0.056-0.183-0.084-0.296-0.084c-0.191,0-0.348,0.076-0.472,0.228c-0.125,0.151-0.187,0.342-0.187,0.573
			c0,0.191,0.049,0.344,0.147,0.46c0.099,0.116,0.229,0.173,0.39,0.173c0.06,0,0.116-0.007,0.17-0.023
			c0.053-0.015,0.103-0.038,0.148-0.067c0.041-0.027,0.075-0.062,0.104-0.103c0.029-0.042,0.052-0.09,0.07-0.146H8.167L8.239,12.985
			z"/>
		<path fill="#D58400" d="M9.374,14.347l1.138-2.5h0.761l0.483,2.5h-0.617l-0.092-0.471h-0.795l-0.217,0.471H9.374z M10.481,13.318
			h0.48l-0.104-0.583c-0.01-0.058-0.018-0.11-0.023-0.156c-0.005-0.045-0.008-0.087-0.01-0.127c-0.021,0.068-0.042,0.128-0.06,0.18
			c-0.018,0.052-0.032,0.09-0.042,0.116L10.481,13.318z"/>
		<path fill="#D58400" d="M11.976,14.347l0.358-2.5h0.694l0.479,1.235c0.004,0.011,0.011,0.028,0.021,0.053
			c0.053,0.136,0.09,0.254,0.11,0.355v-0.063c0-0.046,0.002-0.097,0.007-0.151c0.005-0.056,0.012-0.123,0.021-0.202l0.176-1.228
			h0.607l-0.358,2.5h-0.668l-0.509-1.272c-0.037-0.092-0.065-0.168-0.084-0.229c-0.019-0.06-0.036-0.121-0.049-0.181v0.07
			c0,0.046-0.001,0.093-0.005,0.145c-0.004,0.051-0.01,0.118-0.02,0.202l-0.172,1.265H11.976z"/>
		<path fill="#D58400" d="M15.887,14.413c-0.163,0-0.311-0.024-0.443-0.073c-0.133-0.049-0.251-0.123-0.355-0.22
			c-0.109-0.105-0.193-0.234-0.255-0.388c-0.061-0.154-0.091-0.317-0.091-0.49c0-0.187,0.026-0.361,0.078-0.523
			s0.13-0.309,0.234-0.441c0.122-0.157,0.269-0.277,0.443-0.361c0.174-0.083,0.364-0.125,0.567-0.125
			c0.342,0,0.618,0.108,0.829,0.325c0.211,0.216,0.316,0.498,0.316,0.843c0,0.186-0.026,0.36-0.08,0.523
			c-0.054,0.163-0.131,0.311-0.234,0.441c-0.125,0.161-0.273,0.282-0.444,0.365C16.281,14.372,16.093,14.413,15.887,14.413z
			 M16.026,12.402c-0.185,0-0.341,0.074-0.466,0.221c-0.125,0.146-0.188,0.329-0.188,0.546c0,0.193,0.05,0.346,0.15,0.461
			c0.1,0.115,0.233,0.172,0.4,0.172c0.182,0,0.337-0.076,0.464-0.228s0.191-0.336,0.191-0.556c0-0.179-0.052-0.327-0.155-0.442
			C16.318,12.46,16.187,12.402,16.026,12.402z"/>
	</g>
</g>
</svg>
